# xmcd CD database file
#
# Track frame offsets:
#	150
#	19756
#	48453
#	77914
#	97058
#	123071
#	145424
#	179236
#	188294
#	200334
#
# Disc length: 2821 seconds
#
# Revision: 0
# Processed by: cddbd v1.5.2PL0 Copyright (c) Steve Scherf et al.
# Submitted via: CDex 1.50
#
DISCID=870b030a
DTITLE=Paolo Fresu Ralph Towner - Chiaroscuro
DYEAR=2009
DGENRE=Jazz
TTITLE0=Wistful Thinking
TTITLE1=Punta Giara
TTITLE2=Chiaroscuro
TTITLE3=Sacred Place
TTITLE4=Blue In Green
TTITLE5=Doubled Up
TTITLE6=Zephyr
TTITLE7=The Sacred Place (reprise)
TTITLE8=Two Miniatures
TTITLE9=Postlude
EXTD=YEAR: 2009
EXTT0=
EXTT1=
EXTT2=
EXTT3=
EXTT4=
EXTT5=
EXTT6=
EXTT7=
EXTT8=
EXTT9=
PLAYORDER=
